# xmcd CD database file
#
# Track frame offsets:
#	150
#	27228
#	42638
#	67420
#	102138
#	128813
#	150073
#	178960
#	207255
#	244695
#
# Disc length: 3611 seconds
#
# Revision: 0
# Processed by: cddbd v1.5.2PL0 Copyright (c) Steve Scherf et al.
# Submitted via: CDex 1.51
#
DISCID=890e190a
DTITLE=TROPICAL SUNSHINE - TROPICAL SUNSHINE
DYEAR=1991
DGENRE=SOCA
TTITLE0=BECKET - JAMAICA TEASER
TTITLE1=CHALLENGER - MADAM MICHELLE
TTITLE2=HEARTBEAT - CARTAGENA JAMMING
TTITLE3=CALYPSO ROSE - PEPPER SOUP
TTITLE4=MUSICAL ZOEMBIE - E LOKO ZOEMBIE
TTITLE5=MIGTHY LION - DANCE DANCE DANCE
TTITLE6=TONY RICARDO - SHARON
TTITLE7=CALYPSO ROSE - BANANA
TTITLE8=ROLLING TONES - BOUCING BACK
TTITLE9=IWER GEORGE - BOOM BOOM TIME
EXTD=YEAR: 1991
EXTT0=
EXTT1=
EXTT2=
EXTT3=
EXTT4=
EXTT5=
EXTT6=
EXTT7=
EXTT8=
EXTT9=
PLAYORDER=
